PathFileType	4	(X/Y/Z)	Walk8.trc
DataRate	CameraRate	NumFrames	NumMarkers	Units	OrigDataRate	OrigDataStartFrame	OrigNumFrames
200.000000	200.000000	4	59	mm	200.000000	290	526
Frame#	Times		LFHD		RFHD		RBHD		C7		T10		CLAV		STRN		RBack		LASI		RASI		RPSI		RACR1		RUA1		RElbow		RFA1		RWRR		RWRU		RCAR		LACR1		LUA1		LFA1		LWRR		LCAR		RTH1		RTH3		RTH2		RTH4		RLFC		LTH1		LTH3		LTH2		LTH4		LLFC		LTB1		LTB3		LTB2		LTB4		LMMAL		LMT1		LMT5		LToe		LLMAL		RTB1		LPSI		LElbow		RTB2		RTB4		LBHD		RMT1		RToe		RTB3		RElbowM		LCAL		LElbowM		LWRU		RLMAL		RCAL		RMT5		RMMAL
			X1	Y1	Z1	X2	Y2	Z2	X3	Y3	Z3	X4	Y4	Z4	X5	Y5	Z5	X6	Y6	Z6	X7	Y7	Z7	X8	Y8	Z8	X9	Y9	Z9	X10	Y10	Z10	X11	Y11	Z11	X12	Y12	Z12	X13	Y13	Z13	X14	Y14	Z14	X15	Y15	Z15	X16	Y16	Z16	X17	Y17	Z17	X18	Y18	Z18	X19	Y19	Z19	X20	Y20	Z20	X21	Y21	Z21	X22	Y22	Z22	X23	Y23	Z23	X24	Y24	Z24	X25	Y25	Z25	X26	Y26	Z26	X27	Y27	Z27	X28	Y28	Z28	X29	Y29	Z29	X30	Y30	Z30	X31	Y31	Z31	X32	Y32	Z32	X33	Y33	Z33	X34	Y34	Z34	X35	Y35	Z35	X36	Y36	Z36	X37	Y37	Z37	X38	Y38	Z38	X39	Y39	Z39	X40	Y40	Z40	X41	Y41	Z41	X42	Y42	Z42	X43	Y43	Z43	X44	Y44	Z44	X45	Y45	Z45	X46	Y46	Z46	X47	Y47	Z47	X48	Y48	Z48	X49	Y49	Z49	X50	Y50	Z50	X51	Y51	Z51	X52	Y52	Z52	X53	Y53	Z53	X54	Y54	Z54	X55	Y55	Z55	X56	Y56	Z56	X57	Y57	Z57	X58	Y58	Z58	X59	Y59	Z59

290	1.45	-153.66	1590.1	-79.834	-146.64	1591.7	-6.711	-316.38	1548.6	30.525	-317.48	1421.2	-47.308	-346.23	1137	-48.129	-191.97	1346.1	-52.596	-114.83	1122	-51.574	-361.5	1315.1	45.694	-166.16	938.92	-173.31	-160.71	957.42	96.142	-374.59	982.01	28.758	-244.59	1353.1	121.6	-286.6	1143.6	179.74	-318.71	1040.2	199.39	-274.05	894.6	213.22	-264.29	787.14	178.09	-316.28	789.98	230.96	-276.62	742.14	227.89	-252.77	1362.2	-220.97	-247.48	1155.4	-275.64	-166.86	927.33	-286.5	-129.28	820.49	-239.33	-110.93	779.11	-280.05	-212.8	760.22	149.71	-137.79	589.15	114.33	-113.59	708.77	111.28	-174.93	674.38	132.35	-113.82	495.71	102.85	-275.25	729.76	-197.15	-272.01	548.01	-156.42	-202.75	639.2	-149.95	-275.39	634.57	-176.17	-284.52	439.35	-140.97	-286.07	338.89	-58.318	-357.6	165.09	-58.018	-335.2	256.07	-132.14	-320.12	249.56	-61.766	-411.61	75.657	-25.362	-284.53	38.081	-66.783	-323.87	22.774	-145.1	-238.25	29.17	-98.51	-426.82	66.739	-107.67	-77.889	372.18	39.331	-378.55	977.9	-85.208	-247.24	1035.4	-293.34	-120.27	288.93	104.69	-95.969	281.35	38.44	-322.93	1556.8	-96.484	-14.498	60.737	72.379	13.095	55.521	111.3	-113.15	191.41	37.421	-331.74	1020.7	116.06	-481.52	38.215	-54.6	-280.56	1017	-233.64	-165.7	805.8	-299.88	-172.67	89.8	80.172	-207.37	54.779	24.253	-72.025	36.438	128.48	-136.3	104.32	7.4549
291	1.455	-148.09	1589.4	-79.311	-141.01	1590.9	-6.1954	-310.74	1547.9	31.136	-311.9	1420.5	-46.812	-340.57	1136.3	-47.767	-186.37	1345.4	-52.237	-109.06	1121.2	-51.457	-355.87	1314.2	46.034	-161.03	937.8	-173.16	-154.9	956.37	96.167	-368.78	981.38	29.298	-238.98	1352.1	122	-281.58	1142.8	180.11	-313.84	1039.5	199.73	-269.79	893.75	213.8	-260.46	786.18	178.7	-312.51	789.28	231.53	-273.08	741.24	228.49	-247.28	1361.7	-220.58	-241.31	1155	-275.59	-158.6	927.72	-286.33	-119.75	821.54	-238.84	-100.87	780.29	-279.43	-207.01	759.76	150.38	-132.2	588.6	114.9	-108.09	708.19	111.41	-169.22	673.86	133.11	-108.34	494.62	103.65	-270.76	729.07	-196.8	-268.35	547.28	-156.17	-198.69	638.17	-149.63	-271.32	633.87	-175.91	-281.54	438.64	-140.72	-283.81	338.13	-58.089	-356.69	164.87	-57.876	-333.53	255.69	-131.95	-318.55	249.06	-61.575	-411.32	75.858	-25.26	-284.51	38.05	-66.726	-323.89	22.784	-145.03	-238.2	29.07	-98.647	-426.59	67.063	-107.63	-69.008	371.98	40.087	-373.03	977.27	-84.65	-240.11	1035.1	-293.42	-108.66	287.41	105.43	-83.989	280.6	39.243	-317.38	1556.1	-95.862	4.902	62.518	73.479	32.635	58.018	112.43	-98.084	190.14	38.219	-326.72	1019.9	116.4	-481.44	38.787	-54.519	-273.3	1016.3	-233.76	-156.03	806.18	-299.28	-154.26	86.594	80.84	-187.73	50.512	24.812	-52.039	36.421	129.49	-118.22	102.33	8.1878
292	1.46	-142.51	1588.6	-78.767	-135.38	1590.2	-5.6574	-305.09	1547.1	31.771	-306.29	1419.7	-46.296	-334.9	1135.5	-47.366	-180.74	1344.6	-51.854	-103.27	1120.4	-51.322	-350.22	1313.3	46.395	-155.93	936.67	-173.03	-149.05	955.23	96.218	-362.96	980.72	29.871	-233.34	1351.2	122.43	-276.51	1142	180.51	-308.91	1038.7	200.1	-265.44	892.89	214.41	-256.54	785.21	179.33	-308.64	788.55	232.12	-269.42	740.33	229.11	-241.76	1361.1	-220.17	-235.16	1154.5	-275.51	-150.38	928.09	-286.15	-110.26	822.57	-238.35	-90.907	781.44	-278.82	-201.27	759.21	151.05	-126.78	587.9	115.53	-102.69	707.44	111.54	-163.61	673.23	133.91	-102.97	493.43	104.49	-266.28	728.37	-196.45	-264.68	546.55	-155.92	-194.62	637.14	-149.34	-267.25	633.17	-175.65	-278.55	437.93	-140.48	-281.53	337.37	-57.874	-355.77	164.67	-57.737	-331.85	255.31	-131.76	-316.96	248.56	-61.395	-411.02	76.084	-25.161	-284.47	38.018	-66.667	-323.91	22.795	-144.95	-238.14	28.972	-98.776	-426.35	67.408	-107.58	-60.266	371.79	40.861	-367.5	976.61	-84.061	-233.01	1034.7	-293.44	-97.148	285.99	106.18	-72.152	279.96	40.064	-311.81	1555.4	-95.218	24.064	64.538	74.448	51.947	60.768	113.39	-83.166	189.06	39.029	-321.68	1019.1	116.78	-481.35	39.394	-54.424	-266.05	1015.7	-233.82	-146.44	806.56	-298.67	-135.93	83.689	81.53	-168.18	46.611	25.407	-32.194	36.675	130.43	-100.31	100.63	8.9297
293	1.465	-136.93	1587.9	-78.199	-129.75	1589.4	-5.0957	-299.43	1546.3	32.428	-300.66	1419	-45.76	-329.2	1134.7	-46.927	-175.09	1343.8	-51.446	-97.454	1119.5	-51.169	-344.54	1312.4	46.781	-150.84	935.55	-172.92	-143.17	954.01	96.296	-357.1	980.02	30.477	-227.68	1350.2	122.87	-271.38	1141.1	180.93	-303.93	1037.9	200.49	-261.01	892.02	215.04	-252.51	784.24	179.98	-304.67	787.8	232.73	-265.65	739.41	229.75	-236.21	1360.5	-219.74	-229.03	1154.1	-275.39	-142.19	928.43	-285.95	-100.83	823.59	-237.87	-81.033	782.58	-278.21	-195.59	758.59	151.71	-121.53	587.07	116.25	-97.401	706.54	111.68	-158.11	672.48	134.74	-97.705	492.15	105.37	-261.79	727.67	-196.1	-260.98	545.82	-155.69	-190.53	636.12	-149.07	-263.16	632.47	-175.39	-275.55	437.21	-140.25	-279.24	336.61	-57.671	-354.84	164.48	-57.601	-330.17	254.94	-131.58	-315.36	248.06	-61.226	-410.69	76.336	-25.065	-284.44	37.986	-66.608	-323.95	22.806	-144.87	-238.09	28.877	-98.896	-426.11	67.776	-107.52	-51.66	371.61	41.648	-361.95	975.93	-83.439	-225.92	1034.2	-293.42	-85.759	284.68	106.96	-60.476	279.43	40.897	-306.24	1554.6	-94.551	42.936	66.78	75.286	70.975	63.759	114.18	-68.429	188.2	39.847	-316.61	1018.3	117.18	-481.25	40.036	-54.312	-258.8	1015	-233.84	-136.92	806.93	-298.04	-117.74	81.098	82.243	-148.79	43.08	26.041	-12.548	37.2	131.27	-82.618	99.232	9.6786
